<svg width="19" height="18" viewBox="0 0 19 18" fill="none" xmlns="http://www.w3.org/2000/svg">
<path d="M4.37891 4.5H17.3789C17.4159 4.50005 18.3789 4.50127 18.3789 5.5L17.3789 11.5C17.2899 11.991 16.9498 12.5 16.4432 12.5H6.37891L6.47397 13.7985C6.54315 14.1291 6.83612 14.5 7.17035 14.5H15.9855C16.0232 14.5 16.0597 14.5054 16.0947 14.5155C16.82 14.6204 17.3789 15.2462 17.3789 16C17.3789 16.8271 16.706 17.5 15.8789 17.5C15.0518 17.5 14.3789 16.8271 14.3789 16C14.3789 15.8248 14.4091 15.6565 14.4646 15.5H8.29325C8.34871 15.6564 8.37891 15.8248 8.37891 16C8.37891 16.8271 7.70602 17.5 6.87891 17.5C6.0518 17.5 5.37891 16.8271 5.37891 16C5.37891 15.5183 5.6071 15.089 5.96107 14.8143C5.77437 14.568 5.63909 14.2794 5.57853 13.9905L5.18747 12.1269L2.37891 1.5H0.836524C0.58373 1.5 0.378906 1.21822 0.378906 0.962647C0.378906 0.707075 0.58373 0.5 0.836524 0.5H2.94061C3.15111 0.5 3.3345 0.645345 3.38494 0.852063L4.37891 4.5Z" fill="white"/>
</svg>
