<svg width="129" height="19" viewBox="0 0 129 19" fill="none" xmlns="http://www.w3.org/2000/svg">
<path d="M6.32812 18.2812L2.36719 3.45703L0.621094 3.28125V1.21875H7.48828V3.28125L5.64844 3.55078L7.65234 11.8477L8.01562 13.3711H8.08594L8.51953 11.8477L11.8945 1.21875H14.4141L17.918 12.1406L18.3281 13.4883H18.3984L18.75 12.1406L20.8242 3.55078L18.8789 3.28125V1.21875H25.6172V3.28125L23.9883 3.45703L19.9805 18.2812H16.8867L13.6523 8.30859L13.2422 6.90234H13.1719L12.7148 8.35547L9.44531 18.2812H6.32812Z" fill="#262D33"/>
<path d="M26.6602 18.2812V16.2305L28.3125 15.8789V8.01562L26.4844 7.66406V5.60156H31.7344V15.8789L33.375 16.2305V18.2812H26.6602ZM28.1953 2.91797V0H31.7344V2.91797H28.1953Z" fill="#262D33"/>
<path d="M34.3359 18.2812V16.2305L35.9883 15.8789V2.41406L34.1602 2.0625V0H39.4102V15.8789L41.0625 16.2305V18.2812H34.3359Z" fill="#262D33"/>
<path d="M42 18.2812V16.2305L43.6523 15.8789V2.41406L41.8242 2.0625V0H47.0742V15.8789L48.7266 16.2305V18.2812H42Z" fill="#262D33"/>
<path d="M57.2812 18.5273C56.4922 18.5273 55.8203 18.375 55.2656 18.0703C54.7109 17.7578 54.2461 17.3086 53.8711 16.7227L53.625 18.2812H50.6719V2.41406L48.8555 2.0625V0H54.082V6.94922C54.4492 6.44141 54.8984 6.05078 55.4297 5.77734C55.9688 5.50391 56.5938 5.36719 57.3047 5.36719C58.8438 5.36719 60.0273 5.97656 60.8555 7.19531C61.6914 8.40625 62.1094 10.0234 62.1094 12.0469V12.293C62.1094 14.1836 61.6914 15.6953 60.8555 16.8281C60.0195 17.9609 58.8281 18.5273 57.2812 18.5273ZM56.2383 15.8672C57.1133 15.8672 57.7422 15.5586 58.125 14.9414C58.5078 14.3164 58.6992 13.4336 58.6992 12.293V12.0469C58.6992 10.8125 58.5039 9.83594 58.1133 9.11719C57.7305 8.39062 57.1172 8.02734 56.2734 8.02734C55.7578 8.02734 55.3164 8.14844 54.9492 8.39062C54.582 8.63281 54.293 8.96094 54.082 9.375V14.6719C54.5586 15.4688 55.2773 15.8672 56.2383 15.8672Z" fill="#262D33"/>
<path d="M69.9375 18.5273C68.7188 18.5273 67.6562 18.2617 66.75 17.7305C65.8516 17.1914 65.1523 16.4531 64.6523 15.5156C64.1602 14.5781 63.9141 13.5078 63.9141 12.3047V11.8359C63.9141 10.5781 64.1484 9.46484 64.6172 8.49609C65.0859 7.51953 65.7461 6.75391 66.5977 6.19922C67.457 5.63672 68.4688 5.35938 69.6328 5.36719C71.3438 5.36719 72.6523 5.87109 73.5586 6.87891C74.4648 7.87891 74.918 9.28516 74.918 11.0977V12.9609H67.4648L67.4414 13.0312C67.5039 13.8672 67.7812 14.5547 68.2734 15.0938C68.7656 15.6328 69.4648 15.9023 70.3711 15.9023C70.9961 15.9023 71.5781 15.8242 72.1172 15.668C72.6641 15.5039 73.1953 15.2656 73.7109 14.9531L74.6367 17.0625C74.1133 17.4844 73.4531 17.8359 72.6562 18.1172C71.8672 18.3906 70.9609 18.5273 69.9375 18.5273ZM67.4883 10.6992H71.7188V10.3945C71.7188 9.62891 71.5586 9.02344 71.2383 8.57812C70.9258 8.125 70.4102 7.89844 69.6914 7.89844C69.0039 7.89844 68.4805 8.16016 68.1211 8.68359C67.7617 9.19922 67.5391 9.85156 67.4531 10.6406L67.4883 10.6992Z" fill="#262D33"/>
<path d="M76.7578 18.2812V16.2305L78.3984 15.8789V8.01562L76.582 7.66406V5.60156H81.5859L81.7148 7.17188L81.7383 7.45312C82.3633 6.0625 83.3008 5.36719 84.5508 5.36719C84.7539 5.36719 84.9727 5.38281 85.207 5.41406C85.4492 5.44531 85.668 5.49219 85.8633 5.55469L85.5 8.70703L83.8008 8.61328C83.3164 8.58984 82.9219 8.67188 82.6172 8.85938C82.3203 9.04688 82.0547 9.31641 81.8203 9.66797V15.8789L83.4609 16.2305V18.2812H76.7578Z" fill="#262D33"/>
<path d="M87.1406 18.2812V16.2305L88.7812 15.8789V8.01562L86.9648 7.66406V5.60156H91.9688L92.0977 7.17188L92.1211 7.45312C92.7461 6.0625 93.6836 5.36719 94.9336 5.36719C95.1367 5.36719 95.3555 5.38281 95.5898 5.41406C95.832 5.44531 96.0508 5.49219 96.2461 5.55469L95.8828 8.70703L94.1836 8.61328C93.6992 8.58984 93.3047 8.67188 93 8.85938C92.7031 9.04688 92.4375 9.31641 92.2031 9.66797V15.8789L93.8438 16.2305V18.2812H87.1406Z" fill="#262D33"/>
<path d="M97.3242 18.2812V16.2305L98.9766 15.8789V8.01562L97.1484 7.66406V5.60156H102.398V15.8789L104.039 16.2305V18.2812H97.3242ZM98.8594 2.91797V0H102.398V2.91797H98.8594Z" fill="#262D33"/>
<path d="M111.258 18.5273C110.039 18.5273 108.977 18.2617 108.07 17.7305C107.172 17.1914 106.473 16.4531 105.973 15.5156C105.48 14.5781 105.234 13.5078 105.234 12.3047V11.8359C105.234 10.5781 105.469 9.46484 105.938 8.49609C106.406 7.51953 107.066 6.75391 107.918 6.19922C108.777 5.63672 109.789 5.35938 110.953 5.36719C112.664 5.36719 113.973 5.87109 114.879 6.87891C115.785 7.87891 116.238 9.28516 116.238 11.0977V12.9609H108.785L108.762 13.0312C108.824 13.8672 109.102 14.5547 109.594 15.0938C110.086 15.6328 110.785 15.9023 111.691 15.9023C112.316 15.9023 112.898 15.8242 113.438 15.668C113.984 15.5039 114.516 15.2656 115.031 14.9531L115.957 17.0625C115.434 17.4844 114.773 17.8359 113.977 18.1172C113.188 18.3906 112.281 18.5273 111.258 18.5273ZM108.809 10.6992H113.039V10.3945C113.039 9.62891 112.879 9.02344 112.559 8.57812C112.246 8.125 111.73 7.89844 111.012 7.89844C110.324 7.89844 109.801 8.16016 109.441 8.68359C109.082 9.19922 108.859 9.85156 108.773 10.6406L108.809 10.6992Z" fill="#262D33"/>
<path d="M123.258 18.5273C122.312 18.5273 121.43 18.4375 120.609 18.2578C119.797 18.0781 119.016 17.8203 118.266 17.4844L118.23 13.8984H120.609L121.066 15.7266C121.332 15.8594 121.621 15.9648 121.934 16.043C122.254 16.1211 122.617 16.1602 123.023 16.1602C123.789 16.1602 124.328 16.0352 124.641 15.7852C124.953 15.5352 125.109 15.2227 125.109 14.8477C125.109 14.4961 124.941 14.1875 124.605 13.9219C124.27 13.6484 123.609 13.4102 122.625 13.207C121.117 12.8945 120.008 12.4102 119.297 11.7539C118.594 11.0977 118.242 10.2578 118.242 9.23438C118.242 8.53906 118.418 7.89844 118.77 7.3125C119.129 6.72656 119.672 6.26172 120.398 5.91797C121.133 5.56641 122.07 5.39062 123.211 5.39062C124.164 5.39062 125.035 5.48438 125.824 5.67188C126.621 5.85156 127.289 6.08984 127.828 6.38672L127.863 9.85547H125.496L125.133 8.19141C124.68 7.87891 124.109 7.72266 123.422 7.72266C122.828 7.72266 122.367 7.84766 122.039 8.09766C121.719 8.33984 121.559 8.64844 121.559 9.02344C121.559 9.35156 121.699 9.64844 121.98 9.91406C122.27 10.1719 122.898 10.4102 123.867 10.6289C125.438 10.9883 126.582 11.4688 127.301 12.0703C128.02 12.6641 128.379 13.5 128.379 14.5781C128.379 15.7578 127.949 16.7109 127.09 17.4375C126.238 18.1641 124.961 18.5273 123.258 18.5273Z" fill="#262D33"/>
</svg>
